<?xml version="1.0" standalone="no"?>
<!DOCTYPE svg PUBLIC "-//W3C//DTD SVG 20010904//EN"
 "http://www.w3.org/TR/2001/REC-SVG-20010904/DTD/svg10.dtd">
<svg version="1.0" xmlns="http://www.w3.org/2000/svg"
 width="1024.000000pt" height="1024.000000pt" viewBox="0 0 1024.000000 1024.000000"
 preserveAspectRatio="xMidYMid meet">

<g transform="translate(0.000000,1024.000000) scale(0.100000,-0.100000)"
fill="#000000" stroke="none">
<path d="M5040 9543 c-331 -32 -571 -86 -713 -160 -79 -42 -158 -122 -175
-179 -15 -52 -22 -339 -14 -593 l7 -205 57 -28 c68 -33 287 -100 418 -127 120
-25 223 -37 425 -51 349 -23 822 40 1127 150 l87 31 0 395 c0 427 -3 453 -54
520 -86 112 -393 218 -713 244 -110 9 -374 11 -452 3z"/>
<path d="M3651 8242 c-92 -46 -122 -145 -81 -257 42 -111 239 -281 410 -352
169 -71 523 -167 726 -198 180 -28 489 -40 671 -27 216 17 501 56 627 88 242
61 419 134 578 240 166 110 254 232 252 350 -1 148 -120 210 -295 153 -74 -24
-124 -51 -229 -124 -189 -131 -399 -219 -628 -264 -366 -72 -678 -65 -1073 24
-163 37 -377 138 -570 270 -148 101 -304 140 -388 97z"/>
<path d="M5817 6746 c-32 -8 -96 -32 -142 -55 -251 -124 -380 -438 -290 -706
45 -136 111 -228 217 -303 84 -59 148 -88 240 -106 102 -21 169 -20 260 3 117
30 193 73 276 157 40 41 75 74 78 74 3 0 4 -585 3 -1300 -2 -1237 -1 -1301 16
-1320 43 -47 200 -77 269 -50 64 24 87 86 42 115 -14 9 -61 22 -106 29 -46 8
-86 20 -91 27 -5 8 -7 609 -6 1337 2 1244 3 1324 19 1336 26 19 48 79 48 128
0 60 -29 103 -76 114 -36 9 -38 12 -51 68 -19 83 -85 197 -160 276 -135 143
-365 217 -546 176z m252 -145 c87 -27 141 -62 208 -135 72 -78 110 -151 124
-237 43 -261 -116 -476 -386 -519 -125 -20 -268 28 -367 123 -107 103 -167
285 -140 427 15 85 64 186 115 238 105 109 290 151 446 103z"/>
<path d="M5948 6493 c6 -2 18 -2 25 0 6 3 1 5 -13 5 -14 0 -19 -2 -12 -5z"/>
<path d="M6031 6472 c74 -30 162 -98 204 -157 8 -11 15 -15 15 -8 0 6 -22 36
-49 65 -49 53 -128 102 -186 113 -20 4 -15 0 16 -13z"/>
<path d="M5775 6450 c-3 -5 -1 -10 4 -10 6 0 11 5 11 10 0 6 -2 10 -4 10 -3 0
-8 -4 -11 -10z"/>
<path d="M5685 6380 c-3 -5 -1 -10 4 -10 6 0 11 5 11 10 0 6 -2 10 -4 10 -3 0
-8 -4 -11 -10z"/>
<path d="M6282 6165 c0 -16 2 -22 5 -12 2 9 2 23 0 30 -3 6 -5 -1 -5 -18z"/>
<path d="M5740 5916 c0 -2 8 -10 18 -17 15 -13 16 -12 3 4 -13 16 -21 21 -21
13z"/>
<path d="M5815 5860 c3 -5 11 -10 16 -10 6 0 7 5 4 10 -3 6 -11 10 -16 10 -6
0 -7 -4 -4 -10z"/>
<path d="M5850 5846 c0 -2 9 -6 20 -9 11 -3 18 -1 14 4 -5 9 -34 13 -34 5z"/>
<path d="M5913 5823 c9 -2 25 -2 35 0 9 3 1 5 -18 5 -19 0 -27 -2 -17 -5z"/>
<path d="M4195 6462 c-114 -41 -204 -126 -231 -217 -39 -135 4 -275 116 -378
122 -113 273 -121 429 -22 49 30 97 98 123 173 87 248 -193 531 -437 444z
m101 -98 c52 -25 84 -68 84 -115 0 -32 -7 -48 -38 -80 -70 -75 -169 -63 -213
27 -17 37 -19 49 -10 77 17 52 81 104 129 106 8 1 29 -6 48 -15z"/>
<path d="M4830 5295 c-78 -22 -130 -56 -202 -131 -35 -36 -88 -92 -119 -124
-88 -91 -162 -121 -231 -93 -47 19 -78 60 -78 105 0 56 28 73 128 77 37 2 -8
76 -54 87 -38 10 -104 -2 -133 -23 -64 -47 -88 -166 -52 -267 50 -142 139
-245 266 -306 114 -55 154 -64 295 -64 103 -1 138 3 195 21 94 30 219 105 282
170 29 29 56 53 61 53 4 0 24 -16 43 -36 86 -90 254 -180 379 -204 29 -6 93
-10 142 -10 185 0 349 86 470 245 77 101 98 156 98 252 0 74 -16 112 -62 146
-52 39 -98 50 -152 36 -52 -13 -69 -29 -64 -61 3 -20 8 -22 46 -20 59 5 82
-17 82 -75 0 -81 -48 -133 -122 -133 -50 0 -92 31 -223 165 -105 108 -130 128
-198 161 -63 29 -94 38 -153 42 -70 4 -79 3 -147 -31 -40 -20 -87 -51 -105
-68 l-34 -32 -42 42 c-75 74 -208 106 -316 76z"/>
</g>
</svg>
