<?xml version="1.0" standalone="no"?>
<!DOCTYPE svg PUBLIC "-//W3C//DTD SVG 20010904//EN"
 "http://www.w3.org/TR/2001/REC-SVG-20010904/DTD/svg10.dtd">
<svg version="1.0" xmlns="http://www.w3.org/2000/svg"
 width="1024.000000pt" height="1024.000000pt" viewBox="0 0 1024.000000 1024.000000"
 preserveAspectRatio="xMidYMid meet">

<g transform="translate(0.000000,1024.000000) scale(0.100000,-0.100000)"
fill="#000000" stroke="none">
<path d="M3565 8859 c-126 -9 -168 -19 -287 -67 -254 -104 -526 -321 -668
-534 -118 -176 -216 -408 -264 -625 -38 -169 -58 -470 -36 -527 15 -39 47 -66
80 -66 24 0 56 24 170 128 151 136 326 282 339 282 11 0 27 -85 46 -245 24
-203 64 -504 76 -573 l11 -63 -164 -167 c-192 -196 -321 -351 -429 -516 -91
-137 -113 -195 -107 -272 4 -45 11 -61 39 -90 69 -71 194 -109 412 -123 122
-8 389 0 462 15 29 5 31 3 85 -97 65 -122 174 -271 284 -386 l80 -85 -44 -86
c-38 -76 -44 -97 -48 -168 -4 -67 -1 -87 16 -120 26 -50 76 -102 141 -143 28
-18 51 -38 51 -45 -1 -37 -35 -239 -84 -489 -73 -376 -86 -465 -73 -495 11
-24 54 -52 81 -52 10 0 17 -13 21 -37 3 -21 13 -72 21 -113 21 -96 32 -202 33
-310 1 -47 7 -96 14 -110 12 -25 14 -25 181 -30 l169 -5 19 -109 c27 -164 53
-240 108 -322 l21 -32 -339 6 -338 5 -22 -23 c-25 -27 -28 -58 -8 -85 13 -19
52 -19 1612 -17 l1599 1 18 22 c22 27 22 51 -1 79 -18 22 -22 22 -235 21 -154
-1 -217 1 -217 9 0 6 33 96 74 198 41 103 95 243 121 312 26 69 68 179 95 245
27 66 88 226 135 355 175 480 153 430 190 430 43 0 148 54 181 93 45 53 67
114 60 164 -7 54 -42 136 -67 159 -25 23 -24 30 12 137 26 77 246 637 252 643
1 1 3 -122 5 -273 2 -156 7 -284 13 -295 11 -21 68 -25 87 -6 9 9 12 93 12
315 l0 302 41 -14 c93 -33 207 -3 259 67 42 56 26 172 -29 210 -13 10 -19 29
-23 76 -7 94 -30 113 -183 151 -207 51 -269 50 -334 -5 -60 -50 -48 -118 38
-215 47 -53 44 -60 -31 -79 -35 -9 -51 -9 -68 0 -19 10 -21 18 -18 70 2 32 0
62 -4 66 -14 13 -60 -28 -80 -73 -51 -115 28 -205 164 -187 42 6 50 4 45 -7
-98 -230 -242 -601 -274 -704 l-18 -60 -365 3 c-200 1 -368 6 -372 10 -5 5 18
26 49 48 131 89 177 263 108 398 -14 27 -24 49 -23 50 27 14 164 147 212 205
243 291 375 620 393 975 9 191 -31 415 -98 548 -31 62 -31 62 -11 77 11 9 79
58 150 109 357 257 540 495 508 664 -7 39 -64 101 -116 128 -92 47 -502 161
-682 189 -126 20 -341 41 -494 47 -154 7 -157 8 -203 39 -25 17 -89 55 -141
85 -86 49 -280 165 -465 280 -274 169 -883 474 -1140 572 -372 141 -540 175
-790 157z m-24 -270 l35 -41 32 16 c17 9 45 16 62 16 25 0 30 -4 30 -25 0 -14
-9 -43 -20 -65 -21 -42 -19 -62 12 -97 11 -11 18 -29 16 -40 -3 -15 -13 -18
-65 -18 l-62 0 -30 -47 c-47 -73 -73 -61 -87 39 -6 49 -8 51 -41 56 -41 7 -73
32 -73 57 0 24 17 36 68 49 l42 12 0 58 c0 87 24 96 81 30z m1375 -423 c38
-38 41 -54 19 -96 -28 -55 -99 -50 -129 9 -19 36 -10 69 30 100 35 28 40 27
80 -13z m-748 -196 l37 -41 53 12 c28 7 55 9 58 6 14 -14 4 -70 -16 -92 l-21
-23 25 -49 c31 -62 23 -73 -48 -66 -47 5 -53 3 -80 -26 -37 -39 -75 -42 -77
-6 -1 14 -3 30 -4 35 -1 6 -3 15 -4 20 0 6 -14 10 -29 10 -16 0 -37 6 -47 14
-29 21 -10 66 38 89 35 18 37 21 37 66 0 40 20 91 36 91 3 0 22 -18 42 -40z
m-793 -166 l41 -47 31 17 c18 9 43 16 58 16 22 0 25 -4 25 -33 0 -18 -7 -42
-15 -53 -20 -27 -19 -51 7 -92 20 -32 20 -36 5 -47 -10 -7 -36 -10 -67 -7 -27
2 -50 0 -50 -5 0 -5 -13 -24 -29 -43 -26 -32 -30 -33 -55 -22 -22 10 -26 18
-26 57 0 45 0 45 -45 56 -51 13 -68 29 -63 61 2 18 14 26 50 38 l48 15 0 56
c0 91 26 101 85 33z m2332 -90 c-3 -3 -12 -4 -19 -1 -8 3 -5 6 6 6 11 1 17 -2
13 -5z m-72 -15 c-30 -10 -214 -45 -290 -56 -28 -4 -37 -2 -30 5 6 6 51 18
100 27 50 9 110 20 135 25 25 4 61 8 80 8 l35 0 -30 -9z m-335 -59 c0 -5 -8
-10 -17 -10 -10 0 -28 -3 -40 -6 -13 -4 -23 -2 -23 4 0 9 17 14 68 21 6 0 12
-3 12 -9z m-95 -20 c4 -6 -8 -10 -27 -10 -19 0 -38 -4 -43 -9 -6 -6 -28 -14
-50 -20 -22 -5 -70 -19 -107 -30 -94 -27 -86 -8 10 22 196 63 206 65 217 47z
m-315 -88 c0 -10 -209 -82 -235 -81 -20 0 -20 0 0 9 63 27 172 64 187 63 10
-1 20 2 23 8 7 11 25 12 25 1z m-365 -122 c-3 -5 -14 -10 -23 -9 -14 0 -13 2
3 9 27 11 27 11 20 0z m-45 -14 c0 -2 -7 -7 -16 -10 -8 -3 -12 -2 -9 4 6 10
25 14 25 6z m-65 -35 c-26 -24 -165 -79 -165 -65 0 8 153 79 180 83 2 1 -4 -7
-15 -18z m-185 -86 c0 -8 -62 -31 -100 -38 -35 -6 -35 -6 10 17 41 22 90 33
90 21z m-190 -77 c0 -7 -24 -24 -53 -37 -28 -13 -72 -36 -97 -51 -25 -15 -92
-53 -150 -85 -210 -116 -372 -216 -463 -285 -88 -67 -108 -79 -106 -62 1 17
307 223 428 289 146 78 166 90 232 131 59 36 197 112 206 112 1 0 3 -6 3 -12z
m2340 -349 c221 -36 442 -288 506 -578 24 -105 28 -298 11 -437 -39 -309 -157
-559 -379 -801 -299 -328 -693 -516 -1158 -554 -147 -12 -463 2 -595 25 -207
37 -426 106 -587 187 -140 70 -176 91 -294 180 -244 183 -470 511 -546 794
-19 71 -50 296 -42 304 2 2 4 -4 4 -15 0 -14 3 -15 9 -6 6 10 15 9 44 -8 23
-13 38 -17 42 -10 3 5 -1 10 -9 10 -9 0 -16 8 -16 18 0 10 -5 23 -11 29 -8 8
-8 13 0 17 6 4 11 2 11 -4 0 -15 29 -44 37 -36 3 3 1 12 -6 20 -9 11 -7 15 11
21 42 12 108 14 109 1 1 -23 18 30 20 64 1 19 6 -4 10 -53 15 -150 85 -320
173 -415 55 -60 151 -134 213 -166 160 -80 351 -100 499 -52 193 62 350 218
424 423 41 114 50 165 50 282 0 140 -43 275 -119 376 l-40 52 37 11 c20 6 71
18 112 26 41 8 98 22 125 30 173 49 478 120 560 130 28 3 89 19 135 35 139 47
416 100 575 110 11 0 49 -4 85 -10z m-1860 -92 c0 -8 11 -20 25 -27 26 -14 33
-30 14 -30 -14 0 -50 19 -72 38 -13 12 -15 17 -5 24 20 12 38 10 38 -5z m-136
-147 c106 -27 169 -63 246 -140 168 -169 206 -429 100 -683 -27 -64 -45 -89
-100 -141 -153 -144 -311 -192 -502 -151 -78 16 -206 80 -266 131 -50 42 -125
160 -154 240 -26 72 -35 234 -19 325 10 57 88 256 113 286 23 29 253 124 353
146 50 11 158 5 229 -13z m-794 -249 c0 -5 -7 -42 -15 -82 -8 -41 -16 -90 -19
-109 -2 -19 -3 3 -3 49 1 83 1 85 -26 96 l-27 11 37 22 c42 24 53 27 53 13z
m-150 -76 c-7 -8 -18 -15 -24 -15 -6 0 -2 7 8 15 25 19 32 19 16 0z m-40 -20
c0 -2 -13 -11 -30 -20 -38 -19 -40 -11 -2 9 31 17 32 18 32 11z m-709 -248
c-10 -9 -11 -8 -5 6 3 10 9 15 12 12 3 -3 0 -11 -7 -18z m-22 -19 c0 -7 -14
-24 -32 -38 l-32 -25 30 37 c33 42 35 44 34 26z m4836 -625 c17 -9 59 -19 94
-22 36 -3 66 -11 68 -18 2 -6 -18 -18 -49 -27 -29 -9 -64 -24 -77 -35 -24 -18
-24 -18 -81 25 -53 40 -70 61 -70 85 0 15 83 10 115 -8z m260 -183 c22 -42 19
-83 -7 -108 -40 -36 -67 -36 -128 1 -72 43 -75 60 -13 81 26 9 64 25 83 36 46
25 47 25 65 -10z m-2474 -924 c122 -83 68 -266 -79 -266 -76 0 -152 78 -152
155 0 107 139 174 231 111z m1480 -216 c7 -95 14 -127 37 -152 18 -21 51 -26
34 -5 -15 18 3 125 25 149 47 53 154 75 201 42 55 -38 67 -115 25 -164 -52
-62 -131 -77 -263 -49 -52 11 -105 22 -117 25 -21 4 -23 10 -23 78 0 40 3 94
6 120 7 45 8 47 38 44 l31 -3 6 -85z m-1269 -31 c3 -30 6 -264 7 -521 1 -439
0 -468 -16 -468 -13 0 -14 -3 -6 -8 7 -5 15 -46 19 -104 l7 -96 -54 -16 c-131
-40 -392 -59 -530 -40 l-44 6 0 637 c0 350 4 642 8 649 16 24 46 13 61 -22 20
-47 83 -108 142 -136 36 -18 65 -24 114 -24 114 0 202 55 241 149 13 31 28 54
33 52 6 -2 14 -28 18 -58z m1315 -282 c7 -7 -161 -475 -262 -732 -35 -88 -89
-227 -120 -310 -32 -82 -77 -200 -101 -262 -24 -62 -46 -125 -50 -140 -4 -15
-15 -45 -26 -65 l-18 -38 -260 0 c-143 0 -260 2 -260 4 0 3 18 37 39 78 39 73
73 194 86 311 l7 57 193 0 194 0 21 28 c17 21 21 35 16 67 -3 22 -9 197 -13
389 l-6 349 37 -7 c74 -14 272 -36 322 -36 89 0 85 -7 84 159 -1 80 -1 150 -1
155 1 9 108 2 118 -7z m-2738 -507 l74 0 -7 -56 c-8 -68 -34 -109 -81 -124
-47 -16 -95 1 -135 46 -26 30 -30 43 -30 91 l0 56 53 -7 c28 -3 85 -6 126 -6z
m1417 -570 c8 -36 43 -45 143 -37 l67 5 -5 -36 -5 -37 -7 35 c-3 19 -7 29 -8
23 -1 -9 -21 -13 -66 -13 -45 0 -65 -4 -65 -12 0 -9 -4 -8 -10 2 -8 12 -12 13
-19 2 -15 -24 -41 14 -34 50 l6 31 -39 -7 c-56 -11 -77 -33 -71 -73 3 -18 2
-33 -4 -33 -5 0 -9 8 -9 18 0 14 -4 12 -20 -8 -11 -14 -20 -20 -21 -15 -1 6
-5 -3 -9 -20 -7 -29 -8 -28 -9 11 0 23 -4 55 -7 72 -6 30 -5 31 40 37 26 4 66
13 89 21 58 18 57 18 63 -16z m-325 -105 c11 -144 43 -262 93 -337 l18 -28
-245 0 c-135 0 -253 -3 -263 -7 -16 -6 -15 -2 5 28 61 92 101 238 101 371 l0
59 143 -3 142 -3 6 -80z m-431 28 c-1 -72 -25 -194 -49 -249 -37 -84 -118
-152 -166 -140 -13 3 -53 38 -89 77 -55 60 -69 82 -86 139 -21 69 -28 136 -10
95 5 -11 9 -14 9 -7 1 9 6 10 19 4 9 -5 94 -10 187 -10 94 0 165 2 158 5 -7 2
-9 11 -6 19 4 10 -4 14 -31 14 -41 0 -51 26 -13 33 13 3 9 4 -10 4 -18 -1 -33
-5 -33 -9 0 -10 -51 1 -64 13 -15 13 -53 11 -59 -4 -3 -9 -28 -13 -81 -12 -60
0 -76 -3 -76 -14 0 -31 -18 5 -23 47 l-5 42 214 0 214 0 0 -47z m715 37 c-3
-5 -17 -10 -31 -10 -13 0 -24 5 -24 10 0 6 14 10 31 10 17 0 28 -4 24 -10z
m205 -145 c0 -5 5 -3 11 5 7 11 8 6 3 -20 -19 -100 -62 -180 -129 -238 -42
-38 -64 -40 -96 -9 -28 25 -109 130 -109 140 0 4 47 7 105 7 58 0 105 3 105 8
-1 15 -28 42 -43 42 -9 0 -19 5 -22 10 -3 6 -13 10 -20 10 -8 0 -24 8 -35 17
-41 35 -26 41 105 39 76 0 125 -5 125 -11z"/>
<path d="M6192 6655 c-86 -19 -135 -44 -216 -111 -118 -97 -186 -235 -200
-409 -12 -141 37 -306 124 -415 50 -63 154 -127 244 -150 130 -33 239 -22 361
34 65 31 171 131 186 176 7 19 23 52 36 73 60 95 79 282 44 419 -28 107 -64
173 -135 244 -69 69 -149 113 -247 138 -77 19 -112 19 -197 1z m156 -265 c45
-28 44 -67 -3 -109 -43 -37 -83 -40 -113 -8 -54 57 -26 137 46 137 20 0 52 -9
70 -20z m165 -149 c42 -16 57 -39 57 -87 0 -51 -36 -99 -82 -110 -23 -5 -34 0
-63 29 -42 42 -46 83 -14 129 30 42 62 54 102 39z"/>
<path d="M5164 5959 c-55 -20 -69 -89 -28 -138 32 -38 55 -39 93 -3 41 38 46
62 19 102 -26 38 -54 51 -84 39z"/>
<path d="M5414 5936 c-19 -19 -34 -42 -34 -53 0 -26 58 -93 80 -93 26 0 77 45
82 74 7 36 -17 85 -47 96 -39 15 -44 13 -81 -24z"/>
<path d="M3563 5673 c1 -18 6 -28 10 -24 4 4 3 18 -2 32 -9 23 -9 22 -8 -8z"/>
<path d="M3645 5462 c0 -11 11 -31 22 -46 12 -15 21 -33 19 -39 -1 -7 -1 -9 1
-4 3 4 8 5 13 2 4 -3 -5 20 -22 50 -16 30 -31 55 -32 55 -1 0 -2 -8 -1 -18z"/>
<path d="M3700 5351 c0 -5 7 -14 15 -21 8 -7 12 -16 10 -21 -3 -4 4 -13 15
-19 24 -13 26 -30 4 -30 -9 0 -14 -6 -11 -12 5 -17 33 -17 29 0 -1 8 2 11 9 7
7 -5 3 -15 -10 -29 -12 -12 -18 -25 -15 -29 3 -3 -4 -3 -17 0 -15 4 -20 3 -15
-5 10 -17 42 -15 60 3 21 22 35 18 29 -7 -4 -19 -3 -20 6 -7 8 13 -1 34 -42
97 -48 75 -67 96 -67 73z"/>
<path d="M3825 5170 c-8 -14 13 -40 32 -40 10 0 11 -5 4 -19 -8 -14 -7 -22 3
-30 7 -6 16 -8 19 -5 6 7 63 -56 60 -66 -1 -6 19 -26 27 -26 3 0 18 -8 33 -18
47 -32 39 -12 -20 45 -30 30 -76 80 -100 112 -48 61 -49 62 -58 47z"/>
<path d="M3890 5039 c0 -5 5 -7 10 -4 6 3 10 8 10 11 0 2 -4 4 -10 4 -5 0 -10
-5 -10 -11z"/>
<path d="M4050 4938 c0 -10 7 -18 15 -18 8 0 15 -4 15 -10 0 -5 5 -10 10 -10
17 0 11 20 -7 27 -10 4 -21 11 -25 17 -5 7 -8 4 -8 -6z"/>
<path d="M4110 4901 c0 -5 7 -12 16 -15 14 -5 15 -4 4 9 -14 17 -20 19 -20 6z"/>
<path d="M4090 6520 c-88 -24 -170 -71 -215 -123 -48 -55 -94 -176 -107 -278
-13 -106 3 -188 59 -289 74 -136 149 -198 288 -239 163 -49 326 -8 446 112 46
45 60 69 94 158 48 125 57 225 31 330 -36 141 -162 281 -296 328 -65 23 -216
24 -300 1z m196 -141 c35 -33 32 -80 -7 -113 -40 -34 -76 -33 -118 4 -50 45
-44 106 14 131 31 13 85 2 111 -22z m185 -168 c55 -56 22 -152 -58 -167 -27
-5 -37 -1 -63 24 -34 34 -38 67 -15 112 33 64 90 77 136 31z"/>
<path d="M5438 3013 c6 -2 18 -2 25 0 6 3 1 5 -13 5 -14 0 -19 -2 -12 -5z"/>
<path d="M5490 2621 c0 -5 5 -13 10 -16 6 -3 10 -2 10 4 0 5 -4 13 -10 16 -5
3 -10 2 -10 -4z"/>
<path d="M4463 2613 c31 -2 83 -2 115 0 31 2 5 3 -58 3 -63 0 -89 -1 -57 -3z"/>
<path d="M4440 2370 c20 -13 33 -13 25 0 -3 6 -14 10 -23 10 -15 0 -15 -2 -2
-10z"/>
<path d="M4488 2363 c7 -3 16 -2 19 1 4 3 -2 6 -13 5 -11 0 -14 -3 -6 -6z"/>
<path d="M5540 2409 c0 -11 7 -22 15 -25 27 -11 30 1 8 23 -22 22 -23 22 -23
2z"/>
<path d="M7703 6700 c-7 -20 -18 -30 -32 -30 -11 0 -26 -10 -32 -22 -10 -18
-8 -24 7 -35 10 -7 23 -13 30 -13 7 0 16 -17 21 -37 6 -29 14 -39 31 -41 30
-5 52 14 52 44 0 17 8 28 25 34 35 13 32 46 -4 65 -17 8 -31 25 -33 37 -2 16
-11 24 -28 26 -20 2 -28 -3 -37 -28z"/>
<path d="M7257 6504 c-4 -4 -7 -18 -7 -30 0 -17 -7 -23 -27 -26 -22 -2 -29 -9
-31 -30 -3 -24 0 -28 22 -28 21 0 25 -5 28 -37 3 -34 6 -38 32 -41 31 -4 46
10 46 46 0 17 6 22 24 22 13 0 27 7 30 16 8 21 -11 44 -35 44 -13 0 -19 9 -21
33 -2 26 -8 33 -28 35 -14 2 -29 0 -33 -4z"/>
<path d="M8136 6446 c-3 -15 -12 -26 -19 -26 -7 0 -21 -6 -31 -13 -21 -15 -12
-47 14 -47 13 0 20 -9 22 -27 2 -23 8 -29 35 -31 26 -3 34 2 45 25 9 19 22 29
41 31 24 3 28 7 25 30 -2 22 -9 28 -35 30 -24 2 -33 9 -35 25 -2 15 -11 23
-29 25 -21 2 -28 -2 -33 -22z"/>
<path d="M7600 6326 c-72 -16 -106 -35 -174 -97 -82 -75 -119 -156 -124 -274
-3 -74 0 -100 17 -146 29 -77 74 -141 121 -174 58 -40 165 -76 245 -82 59 -4
81 -1 136 20 124 47 191 105 236 203 72 157 44 317 -77 444 -54 57 -110 87
-199 106 -78 16 -108 16 -181 0z m169 -122 c64 -19 145 -89 172 -149 28 -61
25 -166 -6 -232 -25 -55 -84 -106 -148 -130 -42 -15 -140 -16 -188 -1 -54 16
-115 70 -147 132 -35 67 -36 169 -3 233 68 134 185 188 320 147z"/>
<path d="M8295 5955 c-33 -32 -31 -59 4 -84 40 -29 60 -26 104 15 31 29 35 39
27 54 -25 46 -97 54 -135 15z"/>
<path d="M8137 5564 c-4 -4 -7 -20 -7 -35 0 -23 -5 -28 -27 -31 -24 -3 -28 -8
-28 -33 0 -23 5 -31 22 -33 15 -2 23 -11 25 -30 3 -23 8 -27 40 -30 35 -3 37
-2 40 30 3 29 7 33 36 36 29 3 33 6 30 30 -2 21 -9 28 -30 30 -22 3 -27 9 -30
35 -3 27 -7 32 -33 35 -17 2 -34 0 -38 -4z"/>
<path d="M3240 2189 c-30 -12 -40 -26 -40 -60 0 -46 32 -64 124 -67 71 -3 84
-1 109 18 35 28 38 81 5 104 -26 18 -157 21 -198 5z"/>
<path d="M7064 2193 c-43 -3 -53 -8 -63 -29 -16 -37 -14 -59 10 -80 18 -17 37
-19 149 -19 112 0 131 2 149 19 30 27 27 70 -5 95 -27 21 -85 25 -240 14z"/>
<path d="M7497 2172 c-25 -28 -21 -67 9 -91 36 -28 60 -26 89 5 31 34 31 49 0
79 -29 30 -75 33 -98 7z"/>
</g>
</svg>
