<?xml version="1.0" standalone="no"?>
<!DOCTYPE svg PUBLIC "-//W3C//DTD SVG 20010904//EN"
 "http://www.w3.org/TR/2001/REC-SVG-20010904/DTD/svg10.dtd">
<svg version="1.0" xmlns="http://www.w3.org/2000/svg"
 width="556.000000pt" height="807.000000pt" viewBox="0 0 556.000000 807.000000"
 preserveAspectRatio="xMidYMid meet">

<g transform="translate(0.000000,807.000000) scale(0.100000,-0.100000)"
fill="#000000" stroke="none">
<path d="M2630 8024 c-19 -2 -80 -9 -135 -15 -227 -24 -486 -91 -600 -154 -66
-37 -123 -91 -151 -145 -18 -32 -19 -64 -19 -429 l0 -395 77 -33 c90 -39 280
-95 416 -123 173 -35 290 -44 572 -44 234 -1 299 3 435 22 211 30 495 102 586
148 l26 13 -1 408 -1 408 -30 54 c-39 70 -106 121 -222 165 -217 84 -397 115
-698 120 -121 3 -236 2 -255 0z"/>
<path d="M1228 6720 c-92 -50 -122 -151 -75 -254 14 -31 38 -72 54 -93 48 -63
212 -192 293 -229 41 -20 82 -39 91 -44 80 -42 543 -166 709 -189 342 -47 659
-40 1073 24 267 42 397 81 622 190 153 74 263 151 330 232 66 80 89 134 88
210 -1 79 -24 120 -83 151 -101 51 -241 12 -437 -121 -309 -209 -598 -298
-1028 -314 -290 -11 -659 45 -861 131 -124 52 -303 150 -386 211 -131 97 -308
140 -390 95z"/>
<path d="M3400 5225 c-278 -63 -464 -298 -463 -586 0 -213 107 -399 291 -508
139 -83 294 -109 445 -75 116 27 192 68 281 156 43 43 81 78 83 78 3 0 3 -585
1 -1301 -3 -1291 -3 -1301 17 -1316 51 -39 100 -53 187 -53 79 0 89 2 117 26
38 32 41 67 6 90 -14 9 -64 22 -112 30 -49 7 -89 13 -91 14 -1 0 -1 601 0
1336 3 1256 4 1336 20 1348 26 19 48 79 48 128 0 55 -30 105 -67 114 -15 3
-33 7 -39 9 -6 2 -15 24 -18 50 -4 26 -28 86 -52 134 -124 242 -406 383 -654
326z m249 -144 c86 -27 139 -61 207 -133 102 -110 142 -222 130 -367 -21 -251
-276 -439 -526 -387 -99 21 -166 55 -233 119 -115 111 -169 291 -136 449 18
81 70 177 128 231 50 47 59 52 156 88 68 25 194 25 274 0z"/>
<path d="M3620 4953 c0 -5 25 -21 55 -37 31 -16 79 -54 107 -85 39 -43 47 -49
35 -25 -9 18 -36 49 -59 69 -45 38 -138 91 -138 78z"/>
<path d="M3339 4913 c-13 -17 -13 -17 6 -3 11 8 22 16 24 17 2 2 0 3 -6 3 -6
0 -17 -8 -24 -17z"/>
<path d="M3394 4346 c11 -9 24 -16 30 -16 12 0 7 5 -24 19 -24 11 -24 11 -6
-3z"/>
<path d="M3440 4326 c0 -2 7 -7 16 -10 8 -3 12 -2 9 4 -6 10 -25 14 -25 6z"/>
<path d="M3523 4303 c9 -2 23 -2 30 0 6 3 -1 5 -18 5 -16 0 -22 -2 -12 -5z"/>
<path d="M1772 4941 c-29 -10 -79 -36 -109 -57 -262 -181 -108 -626 217 -627
51 0 81 6 142 32 88 37 130 77 174 167 25 50 29 71 29 139 0 69 -4 89 -31 145
-41 87 -97 143 -178 181 -86 40 -168 47 -244 20z m107 -96 c47 -24 81 -72 81
-113 0 -69 -64 -132 -133 -132 -53 0 -88 21 -116 70 -21 37 -22 47 -12 80 26
86 111 131 180 95z"/>
<path d="M2410 3775 c-82 -23 -156 -72 -224 -149 -138 -157 -203 -206 -275
-206 -51 0 -97 24 -117 62 -19 34 -17 82 5 102 16 15 35 19 109 25 6 1 12 12
12 26 0 40 -52 67 -118 62 -100 -7 -147 -71 -147 -197 0 -68 4 -83 43 -163 92
-189 258 -291 497 -304 198 -11 366 53 522 200 l52 49 73 -66 c49 -46 97 -79
152 -105 145 -69 176 -76 326 -76 130 0 138 1 218 34 106 42 191 107 259 196
78 103 96 145 101 241 6 104 -16 149 -87 185 -86 44 -196 21 -189 -39 3 -25 6
-26 46 -24 59 5 82 -17 82 -74 0 -56 -14 -84 -54 -112 -41 -28 -91 -28 -136
-1 -19 12 -89 77 -155 145 -105 108 -130 128 -198 160 -62 29 -95 38 -153 42
-68 4 -78 2 -146 -30 -40 -19 -88 -49 -107 -67 l-33 -31 -38 39 c-70 72 -212
105 -320 76z"/>
</g>
</svg>
